; NON-PLATED HOLES START AT T1
; THROUGH (PLATED) HOLES START AT T100
M48
INCH
T100C0.015748
T101C0.040000
T102C0.038000
%
T100
X003146Y010873
X003209Y019317
X010300Y006658
X002188Y006721
X010300Y005061
X004183Y019305
X003146Y003017
X002635Y016878
X007490Y017197
X010300Y005827
X002188Y005891
X005209Y019354
X006468Y011872
X004935Y011065
X002380Y009149
X010300Y007424
T101
X002446Y012054
X002546Y013054
X002446Y014054
X008981Y017228
X008881Y016228
X002546Y015054
X008981Y015228
X008881Y014228
T102
X011718Y014576
X011718Y017576
X011718Y011576
X000718Y005576
X000718Y007576
X011718Y013576
X011718Y000576
X000718Y018576
X000718Y014576
X000718Y000576
X011718Y001576
X000718Y004576
X000718Y006576
X011718Y008576
X000718Y012576
X000718Y013576
X011718Y018576
X000718Y003576
X011718Y007576
X011718Y005576
X011718Y009576
X000718Y015576
X000718Y011576
X011718Y003576
X011718Y015576
X011718Y004576
X000718Y002576
X000718Y001576
X000718Y009576
X011718Y016576
X000718Y010576
X000718Y008576
X000718Y017576
X011718Y019576
X011718Y006576
X011718Y012576
X011718Y002576
X011718Y010576
X000718Y016576
X000718Y019576
T00
M30
