G04 MADE WITH FRITZING*
G04 WWW.FRITZING.ORG*
G04 DOUBLE SIDED*
G04 HOLES PLATED*
G04 CONTOUR ON CENTER OF CONTOUR VECTOR*
%ASAXBY*%
%FSLAX23Y23*%
%MOIN*%
%OFA0B0*%
%SFA1.0B1.0*%
%ADD10C,0.049370*%
%ADD11C,0.088000*%
%ADD12C,0.084000*%
%ADD13R,0.070000X0.170000*%
%ADD14R,0.088740X0.061181*%
%ADD15R,0.001000X0.001000*%
%LNMASK1*%
G90*
G70*
G54D10*
X1030Y742D03*
X1030Y666D03*
X1030Y583D03*
X647Y1187D03*
X521Y1935D03*
X321Y1932D03*
X418Y1931D03*
G54D11*
X1172Y1958D03*
X1172Y1858D03*
X1172Y1758D03*
X1172Y1658D03*
X1172Y1558D03*
X1172Y1458D03*
X1172Y1358D03*
X1172Y1258D03*
X1172Y1158D03*
X1172Y1058D03*
X1172Y958D03*
X1172Y858D03*
X1172Y758D03*
X1172Y658D03*
X1172Y558D03*
X1172Y458D03*
X1172Y358D03*
X1172Y258D03*
X1172Y158D03*
X1172Y58D03*
X1172Y1958D03*
X1172Y1858D03*
X1172Y1758D03*
X1172Y1658D03*
X1172Y1558D03*
X1172Y1458D03*
X1172Y1358D03*
X1172Y1258D03*
X1172Y1158D03*
X1172Y1058D03*
X1172Y958D03*
X1172Y858D03*
X1172Y758D03*
X1172Y658D03*
X1172Y558D03*
X1172Y458D03*
X1172Y358D03*
X1172Y258D03*
X1172Y158D03*
X1172Y58D03*
X72Y1958D03*
X72Y1858D03*
X72Y1758D03*
X72Y1658D03*
X72Y1558D03*
X72Y1458D03*
X72Y1358D03*
X72Y1258D03*
X72Y1158D03*
X72Y1058D03*
X72Y958D03*
X72Y858D03*
X72Y758D03*
X72Y658D03*
X72Y558D03*
X72Y458D03*
X72Y358D03*
X72Y258D03*
X72Y158D03*
X72Y58D03*
X72Y1958D03*
X72Y1858D03*
X72Y1758D03*
X72Y1658D03*
X72Y1558D03*
X72Y1458D03*
X72Y1358D03*
X72Y1258D03*
X72Y1158D03*
X72Y1058D03*
X72Y958D03*
X72Y858D03*
X72Y758D03*
X72Y658D03*
X72Y558D03*
X72Y458D03*
X72Y358D03*
X72Y258D03*
X72Y158D03*
X72Y58D03*
G54D12*
X255Y1505D03*
X245Y1405D03*
X255Y1305D03*
X245Y1205D03*
X255Y1505D03*
X245Y1405D03*
X255Y1305D03*
X245Y1205D03*
G54D10*
X238Y915D03*
X315Y1087D03*
X219Y672D03*
X219Y589D03*
X315Y302D03*
X1030Y506D03*
G54D12*
X888Y1423D03*
X898Y1523D03*
X888Y1623D03*
X898Y1723D03*
X888Y1423D03*
X898Y1523D03*
X888Y1623D03*
X898Y1723D03*
G54D10*
X494Y1107D03*
X749Y1720D03*
X264Y1688D03*
G54D13*
X322Y1933D03*
X422Y1933D03*
X522Y1933D03*
X322Y1933D03*
X522Y1933D03*
G54D14*
X322Y984D03*
X322Y905D03*
X322Y826D03*
X322Y748D03*
X322Y669D03*
X322Y590D03*
X322Y511D03*
X322Y433D03*
X952Y433D03*
X952Y511D03*
X952Y590D03*
X952Y669D03*
X952Y748D03*
X952Y826D03*
X952Y905D03*
X952Y984D03*
G54D15*
X213Y1548D02*
X296Y1548D01*
X213Y1547D02*
X296Y1547D01*
X213Y1546D02*
X296Y1546D01*
X213Y1545D02*
X296Y1545D01*
X213Y1544D02*
X296Y1544D01*
X213Y1543D02*
X296Y1543D01*
X213Y1542D02*
X296Y1542D01*
X213Y1541D02*
X296Y1541D01*
X213Y1540D02*
X296Y1540D01*
X213Y1539D02*
X296Y1539D01*
X213Y1538D02*
X296Y1538D01*
X213Y1537D02*
X296Y1537D01*
X213Y1536D02*
X296Y1536D01*
X213Y1535D02*
X296Y1535D01*
X213Y1534D02*
X296Y1534D01*
X213Y1533D02*
X296Y1533D01*
X213Y1532D02*
X296Y1532D01*
X213Y1531D02*
X296Y1531D01*
X213Y1530D02*
X296Y1530D01*
X213Y1529D02*
X296Y1529D01*
X213Y1528D02*
X296Y1528D01*
X213Y1527D02*
X296Y1527D01*
X213Y1526D02*
X296Y1526D01*
X213Y1525D02*
X296Y1525D01*
X213Y1524D02*
X296Y1524D01*
X213Y1523D02*
X296Y1523D01*
X213Y1522D02*
X296Y1522D01*
X213Y1521D02*
X250Y1521D01*
X259Y1521D02*
X296Y1521D01*
X213Y1520D02*
X247Y1520D01*
X261Y1520D02*
X296Y1520D01*
X213Y1519D02*
X245Y1519D01*
X263Y1519D02*
X296Y1519D01*
X213Y1518D02*
X244Y1518D01*
X264Y1518D02*
X296Y1518D01*
X213Y1517D02*
X243Y1517D01*
X265Y1517D02*
X296Y1517D01*
X213Y1516D02*
X242Y1516D01*
X266Y1516D02*
X296Y1516D01*
X213Y1515D02*
X241Y1515D01*
X267Y1515D02*
X296Y1515D01*
X213Y1514D02*
X241Y1514D01*
X268Y1514D02*
X296Y1514D01*
X213Y1513D02*
X240Y1513D01*
X268Y1513D02*
X296Y1513D01*
X213Y1512D02*
X240Y1512D01*
X269Y1512D02*
X296Y1512D01*
X213Y1511D02*
X239Y1511D01*
X269Y1511D02*
X296Y1511D01*
X213Y1510D02*
X239Y1510D01*
X269Y1510D02*
X296Y1510D01*
X213Y1509D02*
X239Y1509D01*
X269Y1509D02*
X296Y1509D01*
X213Y1508D02*
X239Y1508D01*
X270Y1508D02*
X296Y1508D01*
X213Y1507D02*
X239Y1507D01*
X270Y1507D02*
X296Y1507D01*
X213Y1506D02*
X239Y1506D01*
X270Y1506D02*
X296Y1506D01*
X213Y1505D02*
X239Y1505D01*
X270Y1505D02*
X296Y1505D01*
X213Y1504D02*
X239Y1504D01*
X269Y1504D02*
X296Y1504D01*
X213Y1503D02*
X239Y1503D01*
X269Y1503D02*
X296Y1503D01*
X213Y1502D02*
X239Y1502D01*
X269Y1502D02*
X296Y1502D01*
X213Y1501D02*
X240Y1501D01*
X269Y1501D02*
X296Y1501D01*
X213Y1500D02*
X240Y1500D01*
X268Y1500D02*
X296Y1500D01*
X213Y1499D02*
X241Y1499D01*
X268Y1499D02*
X296Y1499D01*
X213Y1498D02*
X241Y1498D01*
X267Y1498D02*
X296Y1498D01*
X213Y1497D02*
X242Y1497D01*
X266Y1497D02*
X296Y1497D01*
X213Y1496D02*
X243Y1496D01*
X265Y1496D02*
X296Y1496D01*
X213Y1495D02*
X244Y1495D01*
X264Y1495D02*
X296Y1495D01*
X213Y1494D02*
X245Y1494D01*
X263Y1494D02*
X296Y1494D01*
X213Y1493D02*
X247Y1493D01*
X261Y1493D02*
X296Y1493D01*
X213Y1492D02*
X250Y1492D01*
X258Y1492D02*
X296Y1492D01*
X213Y1491D02*
X296Y1491D01*
X213Y1490D02*
X296Y1490D01*
X213Y1489D02*
X296Y1489D01*
X213Y1488D02*
X296Y1488D01*
X213Y1487D02*
X296Y1487D01*
X213Y1486D02*
X296Y1486D01*
X213Y1485D02*
X296Y1485D01*
X213Y1484D02*
X296Y1484D01*
X213Y1483D02*
X296Y1483D01*
X213Y1482D02*
X296Y1482D01*
X213Y1481D02*
X296Y1481D01*
X213Y1480D02*
X296Y1480D01*
X213Y1479D02*
X296Y1479D01*
X213Y1478D02*
X296Y1478D01*
X213Y1477D02*
X296Y1477D01*
X213Y1476D02*
X296Y1476D01*
X213Y1475D02*
X296Y1475D01*
X213Y1474D02*
X296Y1474D01*
X213Y1473D02*
X296Y1473D01*
X213Y1472D02*
X296Y1472D01*
X213Y1471D02*
X296Y1471D01*
X213Y1470D02*
X296Y1470D01*
X213Y1469D02*
X296Y1469D01*
X213Y1468D02*
X296Y1468D01*
X213Y1467D02*
X296Y1467D01*
X213Y1466D02*
X296Y1466D01*
X213Y1465D02*
X296Y1465D01*
X846Y1465D02*
X929Y1465D01*
X846Y1464D02*
X929Y1464D01*
X846Y1463D02*
X929Y1463D01*
X846Y1462D02*
X929Y1462D01*
X846Y1461D02*
X929Y1461D01*
X846Y1460D02*
X929Y1460D01*
X846Y1459D02*
X929Y1459D01*
X846Y1458D02*
X929Y1458D01*
X846Y1457D02*
X929Y1457D01*
X846Y1456D02*
X929Y1456D01*
X846Y1455D02*
X929Y1455D01*
X846Y1454D02*
X929Y1454D01*
X846Y1453D02*
X929Y1453D01*
X846Y1452D02*
X929Y1452D01*
X846Y1451D02*
X929Y1451D01*
X846Y1450D02*
X929Y1450D01*
X846Y1449D02*
X929Y1449D01*
X846Y1448D02*
X929Y1448D01*
X846Y1447D02*
X929Y1447D01*
X846Y1446D02*
X929Y1446D01*
X846Y1445D02*
X929Y1445D01*
X846Y1444D02*
X929Y1444D01*
X846Y1443D02*
X929Y1443D01*
X846Y1442D02*
X929Y1442D01*
X846Y1441D02*
X929Y1441D01*
X846Y1440D02*
X929Y1440D01*
X846Y1439D02*
X929Y1439D01*
X846Y1438D02*
X882Y1438D01*
X894Y1438D02*
X929Y1438D01*
X846Y1437D02*
X880Y1437D01*
X896Y1437D02*
X929Y1437D01*
X846Y1436D02*
X878Y1436D01*
X897Y1436D02*
X929Y1436D01*
X846Y1435D02*
X877Y1435D01*
X898Y1435D02*
X929Y1435D01*
X846Y1434D02*
X876Y1434D01*
X899Y1434D02*
X929Y1434D01*
X846Y1433D02*
X875Y1433D01*
X900Y1433D02*
X929Y1433D01*
X846Y1432D02*
X874Y1432D01*
X901Y1432D02*
X929Y1432D01*
X846Y1431D02*
X874Y1431D01*
X901Y1431D02*
X929Y1431D01*
X846Y1430D02*
X873Y1430D01*
X902Y1430D02*
X929Y1430D01*
X846Y1429D02*
X873Y1429D01*
X902Y1429D02*
X929Y1429D01*
X846Y1428D02*
X873Y1428D01*
X903Y1428D02*
X929Y1428D01*
X846Y1427D02*
X872Y1427D01*
X903Y1427D02*
X929Y1427D01*
X846Y1426D02*
X872Y1426D01*
X903Y1426D02*
X929Y1426D01*
X846Y1425D02*
X872Y1425D01*
X903Y1425D02*
X929Y1425D01*
X846Y1424D02*
X872Y1424D01*
X903Y1424D02*
X929Y1424D01*
X846Y1423D02*
X872Y1423D01*
X903Y1423D02*
X929Y1423D01*
X846Y1422D02*
X872Y1422D01*
X903Y1422D02*
X929Y1422D01*
X846Y1421D02*
X872Y1421D01*
X903Y1421D02*
X929Y1421D01*
X846Y1420D02*
X873Y1420D01*
X903Y1420D02*
X929Y1420D01*
X846Y1419D02*
X873Y1419D01*
X902Y1419D02*
X929Y1419D01*
X846Y1418D02*
X873Y1418D01*
X902Y1418D02*
X929Y1418D01*
X846Y1417D02*
X874Y1417D01*
X901Y1417D02*
X929Y1417D01*
X846Y1416D02*
X874Y1416D01*
X901Y1416D02*
X929Y1416D01*
X846Y1415D02*
X875Y1415D01*
X900Y1415D02*
X929Y1415D01*
X846Y1414D02*
X876Y1414D01*
X899Y1414D02*
X929Y1414D01*
X846Y1413D02*
X877Y1413D01*
X898Y1413D02*
X929Y1413D01*
X846Y1412D02*
X878Y1412D01*
X897Y1412D02*
X929Y1412D01*
X846Y1411D02*
X880Y1411D01*
X896Y1411D02*
X929Y1411D01*
X846Y1410D02*
X882Y1410D01*
X894Y1410D02*
X929Y1410D01*
X846Y1409D02*
X929Y1409D01*
X846Y1408D02*
X929Y1408D01*
X846Y1407D02*
X929Y1407D01*
X846Y1406D02*
X929Y1406D01*
X846Y1405D02*
X929Y1405D01*
X846Y1404D02*
X929Y1404D01*
X846Y1403D02*
X929Y1403D01*
X846Y1402D02*
X929Y1402D01*
X846Y1401D02*
X929Y1401D01*
X846Y1400D02*
X929Y1400D01*
X846Y1399D02*
X929Y1399D01*
X846Y1398D02*
X929Y1398D01*
X846Y1397D02*
X929Y1397D01*
X846Y1396D02*
X929Y1396D01*
X846Y1395D02*
X929Y1395D01*
X846Y1394D02*
X929Y1394D01*
X846Y1393D02*
X929Y1393D01*
X846Y1392D02*
X929Y1392D01*
X846Y1391D02*
X929Y1391D01*
X846Y1390D02*
X929Y1390D01*
X846Y1389D02*
X929Y1389D01*
X846Y1388D02*
X929Y1388D01*
X846Y1387D02*
X929Y1387D01*
X846Y1386D02*
X929Y1386D01*
X846Y1385D02*
X929Y1385D01*
X846Y1384D02*
X929Y1384D01*
X846Y1383D02*
X929Y1383D01*
X847Y1382D02*
X929Y1382D01*
D02*
G04 End of Mask1*
M02*